<svg xmlns="http://www.w3.org/2000/svg" viewBox="0 0 400 400" fill="none">
  <!-- Central card -->
  <rect x="90" y="80" width="220" height="240" rx="18" fill="#fafaf9" stroke="#e7e5e4" stroke-width="2"/>
  <!-- User avatar area - anonymous -->
  <circle cx="200" cy="160" r="44" fill="#f0fdf4" stroke="#bbf7d0" stroke-width="2"/>
  <!-- Ghost/anonymous icon -->
  <path d="M184 152 C184 140, 216 140, 216 152 L216 172 C216 176, 212 176, 210 172 C208 168, 206 172, 204 176 C202 180, 198 180, 196 176 C194 172, 192 168, 190 172 C188 176, 184 176, 184 172 Z" fill="#16a34a" opacity="0.8"/>
  <circle cx="192" cy="156" r="3" fill="white"/>
  <circle cx="208" cy="156" r="3" fill="white"/>
  <!-- Name hidden label -->
  <rect x="140" y="218" width="120" height="28" rx="14" fill="#dcfce7"/>
  <text x="200" y="236" text-anchor="middle" font-family="system-ui, sans-serif" font-size="12" font-weight="700" fill="#16a34a">Anonymous</text>
  <!-- Toggle switch - ON state -->
  <rect x="152" y="264" width="96" height="36" rx="18" fill="#16a34a"/>
  <circle cx="230" cy="282" r="14" fill="white"/>
  <text x="178" y="286" font-family="system-ui, sans-serif" font-size="10" font-weight="700" fill="white">ON</text>
  <!-- Decorative -->
  <circle cx="70" cy="130" r="6" fill="#dcfce7" opacity="0.7"/>
  <circle cx="340" cy="250" r="8" fill="#dcfce7" opacity="0.7"/>
  <circle cx="330" cy="110" r="4" fill="#bbf7d0" opacity="0.5"/>
</svg>